<mxfile host="app.diagrams.net" modified="2023-11-11T08:22:54.977Z" agent="5.0 (Windows NT 10.0; Win64; x64) AppleWebKit/537.36 (KHTML, like Gecko) Chrome/118.0.0.0 Safari/537.36" etag="rBTYOCHb29MFpfnTYUHd" version="15.9.6" type="github">
  <diagram id="iyDOpT2Ew365FAsYk_m5" name="第 1 页">
    <mxGraphModel dx="1038" dy="532" grid="1" gridSize="10" guides="1" tooltips="1" connect="1" arrows="1" fold="1" page="1" pageScale="1" pageWidth="827" pageHeight="1169" math="0" shadow="0">
      <root>
        <mxCell id="0" />
        <mxCell id="1" parent="0" />
        <mxCell id="OJmhvPo5MTYnkoxAkSBA-25" style="edgeStyle=orthogonalEdgeStyle;rounded=0;orthogonalLoop=1;jettySize=auto;html=1;exitX=0;exitY=0.5;exitDx=0;exitDy=0;entryX=1;entryY=0.5;entryDx=0;entryDy=0;fontSize=16;" edge="1" parent="1" source="OJmhvPo5MTYnkoxAkSBA-1" target="OJmhvPo5MTYnkoxAkSBA-2">
          <mxGeometry relative="1" as="geometry" />
        </mxCell>
        <mxCell id="OJmhvPo5MTYnkoxAkSBA-26" style="edgeStyle=orthogonalEdgeStyle;rounded=0;orthogonalLoop=1;jettySize=auto;html=1;entryX=0;entryY=0.5;entryDx=0;entryDy=0;fontSize=16;" edge="1" parent="1" source="OJmhvPo5MTYnkoxAkSBA-1" target="OJmhvPo5MTYnkoxAkSBA-3">
          <mxGeometry relative="1" as="geometry" />
        </mxCell>
        <mxCell id="OJmhvPo5MTYnkoxAkSBA-1" value="&lt;font style=&quot;font-size: 16px&quot;&gt;抽象工厂&lt;/font&gt;" style="rounded=0;whiteSpace=wrap;html=1;fillColor=#dae8fc;strokeColor=#6c8ebf;" vertex="1" parent="1">
          <mxGeometry x="320" y="150" width="120" height="40" as="geometry" />
        </mxCell>
        <mxCell id="OJmhvPo5MTYnkoxAkSBA-2" value="&lt;font style=&quot;font-size: 16px&quot;&gt;小米工厂&lt;/font&gt;" style="rounded=0;whiteSpace=wrap;html=1;fillColor=#b1ddf0;strokeColor=#10739e;" vertex="1" parent="1">
          <mxGeometry x="120" y="150" width="120" height="40" as="geometry" />
        </mxCell>
        <mxCell id="OJmhvPo5MTYnkoxAkSBA-3" value="&lt;font style=&quot;font-size: 16px&quot;&gt;苹果工厂&lt;/font&gt;" style="rounded=0;whiteSpace=wrap;html=1;fillColor=#b1ddf0;strokeColor=#10739e;" vertex="1" parent="1">
          <mxGeometry x="520" y="150" width="120" height="40" as="geometry" />
        </mxCell>
        <mxCell id="OJmhvPo5MTYnkoxAkSBA-27" style="edgeStyle=orthogonalEdgeStyle;rounded=0;orthogonalLoop=1;jettySize=auto;html=1;entryX=1;entryY=0.5;entryDx=0;entryDy=0;fontSize=16;" edge="1" parent="1" source="OJmhvPo5MTYnkoxAkSBA-4" target="OJmhvPo5MTYnkoxAkSBA-5">
          <mxGeometry relative="1" as="geometry" />
        </mxCell>
        <mxCell id="OJmhvPo5MTYnkoxAkSBA-28" style="edgeStyle=orthogonalEdgeStyle;rounded=0;orthogonalLoop=1;jettySize=auto;html=1;entryX=0;entryY=0.5;entryDx=0;entryDy=0;fontSize=16;" edge="1" parent="1" source="OJmhvPo5MTYnkoxAkSBA-4" target="OJmhvPo5MTYnkoxAkSBA-6">
          <mxGeometry relative="1" as="geometry" />
        </mxCell>
        <mxCell id="OJmhvPo5MTYnkoxAkSBA-4" value="抽象产品-手机" style="rounded=0;whiteSpace=wrap;html=1;fontSize=16;fillColor=#fff2cc;strokeColor=#d6b656;" vertex="1" parent="1">
          <mxGeometry x="320" y="270" width="120" height="40" as="geometry" />
        </mxCell>
        <mxCell id="OJmhvPo5MTYnkoxAkSBA-5" value="小米手机" style="rounded=0;whiteSpace=wrap;html=1;fontSize=16;fillColor=#ffff88;strokeColor=#36393d;" vertex="1" parent="1">
          <mxGeometry x="120" y="270" width="120" height="40" as="geometry" />
        </mxCell>
        <mxCell id="OJmhvPo5MTYnkoxAkSBA-6" value="苹果手机" style="rounded=0;whiteSpace=wrap;html=1;fontSize=16;fillColor=#ffff88;strokeColor=#36393d;" vertex="1" parent="1">
          <mxGeometry x="520" y="270" width="120" height="40" as="geometry" />
        </mxCell>
        <mxCell id="OJmhvPo5MTYnkoxAkSBA-16" value="" style="shape=flexArrow;endArrow=classic;html=1;rounded=0;fontSize=16;exitX=0.5;exitY=1;exitDx=0;exitDy=0;entryX=0.5;entryY=0;entryDx=0;entryDy=0;" edge="1" parent="1" source="OJmhvPo5MTYnkoxAkSBA-1" target="OJmhvPo5MTYnkoxAkSBA-4">
          <mxGeometry width="50" height="50" relative="1" as="geometry">
            <mxPoint x="390" y="240" as="sourcePoint" />
            <mxPoint x="440" y="190" as="targetPoint" />
          </mxGeometry>
        </mxCell>
        <mxCell id="OJmhvPo5MTYnkoxAkSBA-17" value="" style="shape=flexArrow;endArrow=classic;html=1;rounded=0;fontSize=16;exitX=0.5;exitY=1;exitDx=0;exitDy=0;entryX=0.5;entryY=0;entryDx=0;entryDy=0;" edge="1" parent="1" source="OJmhvPo5MTYnkoxAkSBA-2" target="OJmhvPo5MTYnkoxAkSBA-5">
          <mxGeometry width="50" height="50" relative="1" as="geometry">
            <mxPoint x="390" y="240" as="sourcePoint" />
            <mxPoint x="440" y="190" as="targetPoint" />
          </mxGeometry>
        </mxCell>
        <mxCell id="OJmhvPo5MTYnkoxAkSBA-18" value="" style="shape=flexArrow;endArrow=classic;html=1;rounded=0;fontSize=16;exitX=0.5;exitY=1;exitDx=0;exitDy=0;entryX=0.5;entryY=0;entryDx=0;entryDy=0;" edge="1" parent="1" source="OJmhvPo5MTYnkoxAkSBA-3" target="OJmhvPo5MTYnkoxAkSBA-6">
          <mxGeometry width="50" height="50" relative="1" as="geometry">
            <mxPoint x="390" y="240" as="sourcePoint" />
            <mxPoint x="440" y="190" as="targetPoint" />
          </mxGeometry>
        </mxCell>
        <mxCell id="OJmhvPo5MTYnkoxAkSBA-19" value="生产" style="text;html=1;strokeColor=none;fillColor=none;align=center;verticalAlign=middle;whiteSpace=wrap;rounded=0;fontSize=16;" vertex="1" parent="1">
          <mxGeometry x="370" y="220" width="60" height="20" as="geometry" />
        </mxCell>
        <mxCell id="OJmhvPo5MTYnkoxAkSBA-20" value="生产" style="text;html=1;strokeColor=none;fillColor=none;align=center;verticalAlign=middle;whiteSpace=wrap;rounded=0;fontSize=16;" vertex="1" parent="1">
          <mxGeometry x="170" y="220" width="60" height="20" as="geometry" />
        </mxCell>
        <mxCell id="OJmhvPo5MTYnkoxAkSBA-21" value="生产" style="text;html=1;strokeColor=none;fillColor=none;align=center;verticalAlign=middle;whiteSpace=wrap;rounded=0;fontSize=16;" vertex="1" parent="1">
          <mxGeometry x="570" y="220" width="60" height="20" as="geometry" />
        </mxCell>
        <mxCell id="OJmhvPo5MTYnkoxAkSBA-24" value="抽象工厂模式：抽象工厂生产抽象产品，具体工厂生产具体产品" style="text;html=1;strokeColor=none;fillColor=none;align=center;verticalAlign=middle;whiteSpace=wrap;rounded=0;fontSize=16;" vertex="1" parent="1">
          <mxGeometry x="120" y="80" width="520" height="40" as="geometry" />
        </mxCell>
        <mxCell id="OJmhvPo5MTYnkoxAkSBA-29" value="适配器模式：为方便使用或满足功能需要而整合现有接口" style="text;html=1;strokeColor=none;fillColor=none;align=center;verticalAlign=middle;whiteSpace=wrap;rounded=0;fontSize=16;" vertex="1" parent="1">
          <mxGeometry x="140" y="370" width="520" height="30" as="geometry" />
        </mxCell>
        <mxCell id="OJmhvPo5MTYnkoxAkSBA-30" value="" style="endArrow=none;html=1;rounded=0;fontSize=16;fillColor=#60a917;strokeColor=#2D7600;" edge="1" parent="1">
          <mxGeometry width="50" height="50" relative="1" as="geometry">
            <mxPoint x="220" y="480" as="sourcePoint" />
            <mxPoint x="220" y="480" as="targetPoint" />
            <Array as="points">
              <mxPoint x="220" y="520" />
              <mxPoint x="290" y="520" />
              <mxPoint x="330" y="480" />
              <mxPoint x="290" y="440" />
              <mxPoint x="220" y="440" />
            </Array>
          </mxGeometry>
        </mxCell>
        <mxCell id="OJmhvPo5MTYnkoxAkSBA-31" value="" style="endArrow=none;html=1;rounded=0;fontSize=16;fillColor=#0050ef;strokeColor=#001DBC;" edge="1" parent="1">
          <mxGeometry width="50" height="50" relative="1" as="geometry">
            <mxPoint x="380" y="480" as="sourcePoint" />
            <mxPoint x="380" y="480" as="targetPoint" />
            <Array as="points">
              <mxPoint x="340" y="520" />
              <mxPoint x="420" y="520" />
              <mxPoint x="420" y="500" />
              <mxPoint x="460" y="500" />
              <mxPoint x="460" y="460" />
              <mxPoint x="420" y="460" />
              <mxPoint x="420" y="440" />
              <mxPoint x="340" y="440" />
            </Array>
          </mxGeometry>
        </mxCell>
        <mxCell id="OJmhvPo5MTYnkoxAkSBA-33" value="" style="endArrow=none;html=1;rounded=0;fontSize=16;fillColor=#d80073;strokeColor=#A50040;" edge="1" parent="1">
          <mxGeometry width="50" height="50" relative="1" as="geometry">
            <mxPoint x="580" y="780" as="sourcePoint" />
            <mxPoint x="580" y="780" as="targetPoint" />
            <Array as="points">
              <mxPoint x="580" y="440" />
              <mxPoint x="500" y="440" />
              <mxPoint x="500" y="460" />
              <mxPoint x="540" y="460" />
              <mxPoint x="540" y="480" />
              <mxPoint x="540" y="500" />
              <mxPoint x="500" y="500" />
              <mxPoint x="500" y="520" />
              <mxPoint x="500" y="560" />
              <mxPoint x="460" y="600" />
              <mxPoint x="500" y="640" />
              <mxPoint x="540" y="640" />
              <mxPoint x="540" y="680" />
              <mxPoint x="500" y="680" />
              <mxPoint x="540" y="720" />
              <mxPoint x="500" y="760" />
              <mxPoint x="500" y="780" />
            </Array>
          </mxGeometry>
        </mxCell>
        <mxCell id="OJmhvPo5MTYnkoxAkSBA-35" value="" style="endArrow=none;html=1;rounded=0;fontSize=16;fillColor=#0050ef;strokeColor=#001DBC;" edge="1" parent="1">
          <mxGeometry width="50" height="50" relative="1" as="geometry">
            <mxPoint x="420" y="780" as="sourcePoint" />
            <mxPoint x="420" y="780" as="targetPoint" />
            <Array as="points">
              <mxPoint x="420" y="760" />
              <mxPoint x="460" y="720" />
              <mxPoint x="420" y="680" />
              <mxPoint x="460" y="680" />
              <mxPoint x="460" y="640" />
              <mxPoint x="420" y="640" />
              <mxPoint x="380" y="600" />
              <mxPoint x="420" y="560" />
              <mxPoint x="420" y="540" />
              <mxPoint x="210" y="540" />
              <mxPoint x="210" y="780" />
            </Array>
          </mxGeometry>
        </mxCell>
        <mxCell id="OJmhvPo5MTYnkoxAkSBA-36" value="" style="endArrow=none;html=1;rounded=0;fontSize=16;fillColor=#60a917;strokeColor=#2D7600;" edge="1" parent="1">
          <mxGeometry width="50" height="50" relative="1" as="geometry">
            <mxPoint x="300" y="630" as="sourcePoint" />
            <mxPoint x="300" y="630" as="targetPoint" />
            <Array as="points">
              <mxPoint x="220" y="630" />
              <mxPoint x="220" y="550" />
              <mxPoint x="300" y="550" />
              <mxPoint x="260" y="590" />
            </Array>
          </mxGeometry>
        </mxCell>
        <mxCell id="OJmhvPo5MTYnkoxAkSBA-37" value="" style="endArrow=none;html=1;rounded=0;fontSize=16;fillColor=#60a917;strokeColor=#2D7600;" edge="1" parent="1">
          <mxGeometry width="50" height="50" relative="1" as="geometry">
            <mxPoint x="220" y="770" as="sourcePoint" />
            <mxPoint x="220" y="770" as="targetPoint" />
            <Array as="points">
              <mxPoint x="260" y="770" />
              <mxPoint x="300" y="730" />
              <mxPoint x="260" y="690" />
              <mxPoint x="220" y="690" />
            </Array>
          </mxGeometry>
        </mxCell>
        <mxCell id="OJmhvPo5MTYnkoxAkSBA-38" value="" style="endArrow=none;html=1;rounded=0;fontSize=16;fillColor=#60a917;strokeColor=#2D7600;" edge="1" parent="1">
          <mxGeometry width="50" height="50" relative="1" as="geometry">
            <mxPoint x="220" y="680" as="sourcePoint" />
            <mxPoint x="220" y="680" as="targetPoint" />
            <Array as="points">
              <mxPoint x="260" y="680" />
              <mxPoint x="260" y="640" />
              <mxPoint x="220" y="640" />
            </Array>
          </mxGeometry>
        </mxCell>
        <mxCell id="OJmhvPo5MTYnkoxAkSBA-39" value="业务层" style="text;html=1;strokeColor=none;fillColor=none;align=center;verticalAlign=middle;whiteSpace=wrap;rounded=0;fontSize=16;" vertex="1" parent="1">
          <mxGeometry x="510" y="790" width="60" height="30" as="geometry" />
        </mxCell>
        <mxCell id="OJmhvPo5MTYnkoxAkSBA-40" value="适配器" style="text;html=1;strokeColor=none;fillColor=none;align=center;verticalAlign=middle;whiteSpace=wrap;rounded=0;fontSize=16;" vertex="1" parent="1">
          <mxGeometry x="370" y="790" width="60" height="30" as="geometry" />
        </mxCell>
        <mxCell id="OJmhvPo5MTYnkoxAkSBA-41" value="接口层" style="text;html=1;strokeColor=none;fillColor=none;align=center;verticalAlign=middle;whiteSpace=wrap;rounded=0;fontSize=16;" vertex="1" parent="1">
          <mxGeometry x="240" y="790" width="60" height="30" as="geometry" />
        </mxCell>
        <mxCell id="OJmhvPo5MTYnkoxAkSBA-42" value="封装类" style="text;html=1;strokeColor=none;fillColor=none;align=center;verticalAlign=middle;whiteSpace=wrap;rounded=0;fontSize=16;" vertex="1" parent="1">
          <mxGeometry x="130" y="650" width="60" height="30" as="geometry" />
        </mxCell>
        <mxCell id="OJmhvPo5MTYnkoxAkSBA-43" value="封装函数" style="text;html=1;strokeColor=none;fillColor=none;align=center;verticalAlign=middle;whiteSpace=wrap;rounded=0;fontSize=16;" vertex="1" parent="1">
          <mxGeometry x="120" y="470" width="90" height="30" as="geometry" />
        </mxCell>
        <mxCell id="OJmhvPo5MTYnkoxAkSBA-44" value="桥接模式：将一个复杂对象抽象出两个独立变化的维度成为两个对象，再使用引用关联起来" style="text;html=1;strokeColor=none;fillColor=none;align=center;verticalAlign=middle;whiteSpace=wrap;rounded=0;fontSize=16;" vertex="1" parent="1">
          <mxGeometry x="80" y="880" width="660" height="30" as="geometry" />
        </mxCell>
        <mxCell id="OJmhvPo5MTYnkoxAkSBA-64" style="edgeStyle=orthogonalEdgeStyle;rounded=0;orthogonalLoop=1;jettySize=auto;html=1;entryX=0.5;entryY=0;entryDx=0;entryDy=0;fontSize=16;" edge="1" parent="1" source="OJmhvPo5MTYnkoxAkSBA-45" target="OJmhvPo5MTYnkoxAkSBA-50">
          <mxGeometry relative="1" as="geometry">
            <mxPoint x="400" y="1260" as="targetPoint" />
          </mxGeometry>
        </mxCell>
        <mxCell id="OJmhvPo5MTYnkoxAkSBA-72" style="edgeStyle=orthogonalEdgeStyle;rounded=0;orthogonalLoop=1;jettySize=auto;html=1;entryX=0.5;entryY=0;entryDx=0;entryDy=0;fontSize=16;" edge="1" parent="1" source="OJmhvPo5MTYnkoxAkSBA-45" target="OJmhvPo5MTYnkoxAkSBA-51">
          <mxGeometry relative="1" as="geometry" />
        </mxCell>
        <mxCell id="OJmhvPo5MTYnkoxAkSBA-73" style="edgeStyle=orthogonalEdgeStyle;rounded=0;orthogonalLoop=1;jettySize=auto;html=1;entryX=0.5;entryY=0;entryDx=0;entryDy=0;fontSize=16;" edge="1" parent="1" source="OJmhvPo5MTYnkoxAkSBA-45" target="OJmhvPo5MTYnkoxAkSBA-55">
          <mxGeometry relative="1" as="geometry" />
        </mxCell>
        <mxCell id="OJmhvPo5MTYnkoxAkSBA-45" value="驱动" style="rounded=0;whiteSpace=wrap;html=1;fontSize=16;fillColor=#dae8fc;strokeColor=#6c8ebf;" vertex="1" parent="1">
          <mxGeometry x="360" y="1190" width="80" height="40" as="geometry" />
        </mxCell>
        <mxCell id="OJmhvPo5MTYnkoxAkSBA-63" style="edgeStyle=orthogonalEdgeStyle;rounded=0;orthogonalLoop=1;jettySize=auto;html=1;entryX=0.5;entryY=1;entryDx=0;entryDy=0;fontSize=16;" edge="1" parent="1" source="OJmhvPo5MTYnkoxAkSBA-46" target="OJmhvPo5MTYnkoxAkSBA-48">
          <mxGeometry relative="1" as="geometry">
            <mxPoint x="400" y="990" as="targetPoint" />
          </mxGeometry>
        </mxCell>
        <mxCell id="OJmhvPo5MTYnkoxAkSBA-69" style="edgeStyle=orthogonalEdgeStyle;rounded=0;orthogonalLoop=1;jettySize=auto;html=1;entryX=0.5;entryY=1;entryDx=0;entryDy=0;fontSize=16;" edge="1" parent="1" source="OJmhvPo5MTYnkoxAkSBA-46" target="OJmhvPo5MTYnkoxAkSBA-49">
          <mxGeometry relative="1" as="geometry" />
        </mxCell>
        <mxCell id="OJmhvPo5MTYnkoxAkSBA-70" style="edgeStyle=orthogonalEdgeStyle;rounded=0;orthogonalLoop=1;jettySize=auto;html=1;entryX=0.5;entryY=1;entryDx=0;entryDy=0;fontSize=16;" edge="1" parent="1" source="OJmhvPo5MTYnkoxAkSBA-46" target="OJmhvPo5MTYnkoxAkSBA-56">
          <mxGeometry relative="1" as="geometry" />
        </mxCell>
        <mxCell id="OJmhvPo5MTYnkoxAkSBA-46" value="车型" style="rounded=0;whiteSpace=wrap;html=1;fontSize=16;fillColor=#fff2cc;strokeColor=#d6b656;" vertex="1" parent="1">
          <mxGeometry x="360" y="1020" width="80" height="40" as="geometry" />
        </mxCell>
        <mxCell id="OJmhvPo5MTYnkoxAkSBA-68" style="edgeStyle=orthogonalEdgeStyle;rounded=0;orthogonalLoop=1;jettySize=auto;html=1;entryX=0;entryY=0.5;entryDx=0;entryDy=0;fontSize=16;" edge="1" parent="1" source="OJmhvPo5MTYnkoxAkSBA-54" target="OJmhvPo5MTYnkoxAkSBA-65">
          <mxGeometry relative="1" as="geometry" />
        </mxCell>
        <mxCell id="OJmhvPo5MTYnkoxAkSBA-54" value="汽车" style="rounded=0;whiteSpace=wrap;html=1;fontSize=16;fillColor=#d5e8d4;strokeColor=#82b366;" vertex="1" parent="1">
          <mxGeometry x="190" y="1100" width="80" height="40" as="geometry" />
        </mxCell>
        <mxCell id="OJmhvPo5MTYnkoxAkSBA-50" value="电动" style="rounded=0;whiteSpace=wrap;html=1;fontSize=16;fillColor=#1ba1e2;fontColor=#ffffff;strokeColor=#006EAF;" vertex="1" parent="1">
          <mxGeometry x="360" y="1270" width="80" height="40" as="geometry" />
        </mxCell>
        <mxCell id="OJmhvPo5MTYnkoxAkSBA-51" value="油动" style="rounded=0;whiteSpace=wrap;html=1;fontSize=16;fillColor=#1ba1e2;fontColor=#ffffff;strokeColor=#006EAF;" vertex="1" parent="1">
          <mxGeometry x="240" y="1270" width="80" height="40" as="geometry" />
        </mxCell>
        <mxCell id="OJmhvPo5MTYnkoxAkSBA-55" value="混动" style="rounded=0;whiteSpace=wrap;html=1;fontSize=16;fillColor=#1ba1e2;fontColor=#ffffff;strokeColor=#006EAF;" vertex="1" parent="1">
          <mxGeometry x="480" y="1270" width="80" height="40" as="geometry" />
        </mxCell>
        <mxCell id="OJmhvPo5MTYnkoxAkSBA-48" value="小型" style="rounded=0;whiteSpace=wrap;html=1;fontSize=16;fillColor=#e3c800;fontColor=#000000;strokeColor=#B09500;" vertex="1" parent="1">
          <mxGeometry x="240" y="940" width="80" height="40" as="geometry" />
        </mxCell>
        <mxCell id="OJmhvPo5MTYnkoxAkSBA-49" value="微型" style="rounded=0;whiteSpace=wrap;html=1;fontSize=16;fillColor=#e3c800;fontColor=#000000;strokeColor=#B09500;" vertex="1" parent="1">
          <mxGeometry x="360" y="940" width="80" height="40" as="geometry" />
        </mxCell>
        <mxCell id="OJmhvPo5MTYnkoxAkSBA-56" value="紧凑型" style="rounded=0;whiteSpace=wrap;html=1;fontSize=16;fillColor=#e3c800;fontColor=#000000;strokeColor=#B09500;" vertex="1" parent="1">
          <mxGeometry x="480" y="940" width="80" height="40" as="geometry" />
        </mxCell>
        <mxCell id="OJmhvPo5MTYnkoxAkSBA-66" style="edgeStyle=orthogonalEdgeStyle;rounded=0;orthogonalLoop=1;jettySize=auto;html=1;entryX=0.5;entryY=0;entryDx=0;entryDy=0;fontSize=16;" edge="1" parent="1" source="OJmhvPo5MTYnkoxAkSBA-65" target="OJmhvPo5MTYnkoxAkSBA-45">
          <mxGeometry relative="1" as="geometry" />
        </mxCell>
        <mxCell id="OJmhvPo5MTYnkoxAkSBA-67" style="edgeStyle=orthogonalEdgeStyle;rounded=0;orthogonalLoop=1;jettySize=auto;html=1;entryX=0.5;entryY=1;entryDx=0;entryDy=0;fontSize=16;" edge="1" parent="1" source="OJmhvPo5MTYnkoxAkSBA-65" target="OJmhvPo5MTYnkoxAkSBA-46">
          <mxGeometry relative="1" as="geometry" />
        </mxCell>
        <mxCell id="OJmhvPo5MTYnkoxAkSBA-78" style="edgeStyle=orthogonalEdgeStyle;rounded=0;orthogonalLoop=1;jettySize=auto;html=1;entryX=0;entryY=0.5;entryDx=0;entryDy=0;fontSize=16;" edge="1" parent="1" source="OJmhvPo5MTYnkoxAkSBA-65" target="OJmhvPo5MTYnkoxAkSBA-75">
          <mxGeometry relative="1" as="geometry" />
        </mxCell>
        <mxCell id="OJmhvPo5MTYnkoxAkSBA-65" value="车型+驱动" style="rounded=0;whiteSpace=wrap;html=1;fontSize=16;fillColor=#60a917;fontColor=#ffffff;strokeColor=#2D7600;" vertex="1" parent="1">
          <mxGeometry x="340" y="1100" width="120" height="40" as="geometry" />
        </mxCell>
        <mxCell id="OJmhvPo5MTYnkoxAkSBA-74" value="拆分" style="text;html=1;strokeColor=none;fillColor=none;align=center;verticalAlign=middle;whiteSpace=wrap;rounded=0;fontSize=16;" vertex="1" parent="1">
          <mxGeometry x="274" y="1100" width="60" height="20" as="geometry" />
        </mxCell>
        <mxCell id="OJmhvPo5MTYnkoxAkSBA-75" value="" style="rounded=0;whiteSpace=wrap;html=1;fontSize=16;fillColor=#fff2cc;strokeColor=#d6b656;" vertex="1" parent="1">
          <mxGeometry x="520" y="1080" width="160" height="80" as="geometry" />
        </mxCell>
        <mxCell id="OJmhvPo5MTYnkoxAkSBA-76" value="驱动" style="rounded=0;whiteSpace=wrap;html=1;fontSize=16;fillColor=#dae8fc;strokeColor=#6c8ebf;" vertex="1" parent="1">
          <mxGeometry x="590" y="1110" width="80" height="40" as="geometry" />
        </mxCell>
        <mxCell id="OJmhvPo5MTYnkoxAkSBA-77" value="车型" style="text;html=1;strokeColor=none;fillColor=none;align=center;verticalAlign=middle;whiteSpace=wrap;rounded=0;fontSize=16;" vertex="1" parent="1">
          <mxGeometry x="530" y="1090" width="60" height="30" as="geometry" />
        </mxCell>
        <mxCell id="OJmhvPo5MTYnkoxAkSBA-79" value="引用" style="text;html=1;strokeColor=none;fillColor=none;align=center;verticalAlign=middle;whiteSpace=wrap;rounded=0;fontSize=16;" vertex="1" parent="1">
          <mxGeometry x="460" y="1100" width="60" height="20" as="geometry" />
        </mxCell>
      </root>
    </mxGraphModel>
  </diagram>
</mxfile>
